<svg id="Ebene_1" data-name="Ebene 1" xmlns="http://www.w3.org/2000/svg" viewBox="0 0 1080 1080"><defs><style>.cls-1{fill:#333;}</style></defs><path class="cls-1" d="M861.27,278.56C815.7,171.61,669.33,160.82,586.16,163.89c-114.75,4.26-152.26,52.39-188.54,98.94-29.2,37.48-59.41,76.25-133,94.71-68.55,17.21-65,126.26-51.33,216.23a113,113,0,0,0,1.78,11.3c4.19,25.57,9,49.12,12.94,68,.24,13.53.53,26.15.66,36.77a53.71,53.71,0,0,0-10.89,42.94c2.81,15.63,13.28,29.93,21.1,43.48,21.38,37,41.37,75.39,64.35,111.45,23.6,37,73.06,27.7,110.78,27.7,44,0,88,1,132,0,48.75-1.1,63.61-53.78,82.12-90.29l61.27-120.82a12.29,12.29,0,0,0,1-2.48c8.61-21.91,4.87-46.11-10.75-62,.11-4.72.23-9.49.35-14.27l7,.84c.86-7.18,1.78-13.58,2.78-19.39a112.15,112.15,0,0,0,8.46-30.56c8.23-18.66,21.08-28.18,43.62-44.78,18.62-13.71,44.12-32.48,77.47-64.73C862.35,425.33,890.55,347.29,861.27,278.56ZM263.88,668.75a57.67,57.67,0,0,0-12,3.51q0-12.43-.05-24.89A110.52,110.52,0,0,0,282.17,666C276,666.78,269.94,667.68,263.88,668.75Zm-21.76-59.86c-4.62-7.66,7.36-14.62,12-7,19.21,31.85,57.51,47.58,93.33,35.91,32.73-10.66,54.37-41.49,55-75.55.17-8.92,14-8.92,13.86,0-.76,40.32-26.55,76.38-65.18,88.91C309.42,664.69,264.39,645.84,242.12,608.89Zm193.84-61a134.84,134.84,0,0,1,39.8,1.34,111.72,111.72,0,0,0,22.58,81.57q3.51,4.53,7.36,8.59l-3.8.46L390.1,653.4A112,112,0,0,0,436,547.87Zm42.76-14.3a149.74,149.74,0,0,0-45.93-1.32,112,112,0,0,0-125.72-80.7A173.48,173.48,0,0,1,359,419.24c40.95-16.36,87.89-11.37,131.14-11.37,40.27.76,80,16.7,110.36,43.09a112,112,0,0,0-121.79,82.61Zm-137.26,3.29a30.38,30.38,0,1,1-42.06,8.73A30.41,30.41,0,0,1,341.46,536.86Zm-1.78,76.65c22.24-7.34,36.6-28.16,37.21-51.25.24-8.91,14.09-8.92,13.85,0-.77,29.35-19.15,55.46-47.38,64.61-30.43,9.87-62.77-4-79.15-30.77-4.68-7.63,7.31-14.58,12-7C289.38,610.65,315.21,621.59,339.68,613.51ZM473.22,858.32a15.08,15.08,0,0,1-8.12,1.59,4.2,4.2,0,0,1-2.82-1.35c-5.13,0-10.26.12-15.39.21-14.64.25-29.27.47-43.91,1q-11.07.39-22.13.94c-3.69.18-7.37.37-11.06.58-1.91.1-3.82.12-5.74.13a12.59,12.59,0,0,1-5.15-.55c-2.6-1.08-2.32-5.67-.17-7,1.86-1.16,4.2-1.23,6.33-1.58s4.08-.58,6.13-.81q6.13-.66,12.27-1.28l2.43-.23c0-.17,0-.35-.05-.51-.8-11.86-.2-23.81.16-35.68.61-20.6,1.64-41.2,3.54-61.72q-3.77,6.41-8.07,12.48A161.74,161.74,0,0,1,367,782.18c-4.94,5.2-10.25,10.78-16.63,14.19-2,1.07-2.47-3.08-1.69-4.12,5-6.75,11-12.69,16.14-19.36a187.55,187.55,0,0,0,22.64-37.62q3.15-7.08,5.72-14.38c.1-.69.19-1.39.3-2.08.74-5,1.5-9.94,2.45-14.87,1.05-5.44,2.67-10.54,6.49-14.68,1.73-1.87,4.23-1.09,5.73.47,1.9,2,2.55,5.53,2,8.19a160.93,160.93,0,0,1-6.45,23.45c-.43,2.86-.84,5.73-1.22,8.59-1.37,10.18-2.44,20.38-3.31,30.61-.89,10.6-1.35,18.14-1.85,28.63-.49,10.13-.82,20.27-1.07,30.41-.25,9.84-.26,19.68-1.11,29.49,10.69-1,21.38-1.93,32.09-2.72q6.27-.46,12.55-.8c-.46-10.58.05-21.22.37-31.8.61-20.6,1.64-41.2,3.54-61.72-2.52,4.27-5.19,8.44-8.07,12.48a164.1,164.1,0,0,1-14.45,17.64c-4.94,5.2-10.25,10.78-16.63,14.19-2,1.07-2.47-3.08-1.7-4.12,5-6.75,11-12.69,16.15-19.36a187.55,187.55,0,0,0,22.64-37.62q3.13-7.08,5.72-14.38c.1-.69.19-1.39.29-2.08.75-5,1.51-9.94,2.46-14.87,1-5.44,2.66-10.54,6.49-14.68,1.73-1.87,4.23-1.09,5.73.47,1.9,2,2.55,5.53,2,8.19A162.2,162.2,0,0,1,458,721.37c-.43,2.86-.84,5.73-1.23,8.59-1.36,10.18-2.44,20.38-3.3,30.61-.89,10.6-1.36,18.14-1.86,28.63q-.72,15.19-1.07,30.41c-.21,8.48-.24,17-.79,25.44,7.28-.37,14.57-.72,21.86-1.16,3.14-.2,4.63,3.81,4.9,6.26C476.82,853.16,476.06,856.73,473.22,858.32Zm83.56,8.07c-1.75,7.16-5.46,17.88-14.87,16.56-7-1-11.4-8.68-14.24-14.44a61.48,61.48,0,0,1-5.44-20.5c-1.3-12,.07-23.73,3-35.23A329.08,329.08,0,0,1,485.66,826q3.38,13.25,7.81,26.24c.76,2.22.89,5.81-1.43,7.28s-4.05-1.2-4.6-3.2c-3-11-5.52-22.12-7.6-33.35l-.58.09a34.19,34.19,0,0,1-10.15-.21,23.78,23.78,0,0,1-8.6-3.5c-1.45-.91-1.72-3.5-1.48-5,.19-1.16,1.15-3.58,2.75-3.35a74.92,74.92,0,0,0,16.16,1q-2.15-13.56-3.51-27.2c-.28-2.75,3.14-3.82,3.48-.81q1.6,13.86,4.42,27.44a51.93,51.93,0,0,0,14.4-5.13,90.47,90.47,0,0,0,13.17-8.59c3.8-2.92,8.25-6,10.84-10.08.78-1.25,1.24-2.25.59-3.6-.92-1.91-3-3.42-4.63-4.62a29.82,29.82,0,0,0-13.86-5.08c-10.43-1.15-21.22,2.18-30.18,7.38-7.69,4.47-15,11.43-15.8,20.74-.2,2.32-2.63,1.48-2.61-.48.18-12.62,9.24-22.35,19.43-28.66,10.77-6.66,23.45-10.28,36-7.05,5.75,1.48,11.6,4.58,15.29,9.34a16.79,16.79,0,0,1,1.21,18.2c-2.75,5.21-7.74,9-12.27,12.59-.52.42-1.06.82-1.6,1.23,5.86-2.15,11.69-4.41,17.49-6.72,3.6-1.43,4.48,4.63,3.67,6.85a79.32,79.32,0,0,0-2.56,44.14c1.38,5.69,3.92,11.67,8.21,15.8,2.09,2,4.11,3.13,6.9,1.7s4.26-4.63,5.62-7.38a2.38,2.38,0,0,1,3.63-.81C556.62,862.3,557.16,864.82,556.78,866.39Zm30.94-273.76a30.38,30.38,0,1,1,29.74-31A30.41,30.41,0,0,1,587.72,592.63Zm66.89-14.43c-2.07,8.68-15.42,5-13.36-3.68,5.91-24.82-5-51-28.3-62.4-20.8-10.19-45.36-5.43-61.93,10.25-6.47,6.13-16.28-3.65-9.79-9.8,21.2-20.08,52.3-25.59,78.72-12.41C648.83,514.56,661.91,547.52,654.61,578.2Zm27.32-12.07a127.2,127.2,0,0,0-8.08,23.5c-4.32.47-9.3-3-7.93-8.53,8.87-35.94-7-74.08-40.37-91.2-30.69-15.75-68-9.23-92.57,14.42-6.44,6.18-16.24-3.6-9.8-9.79,29.18-28.06,73.11-35.31,109.36-16.59C665.65,495,683.68,530.26,681.93,566.13ZM805.92,453c-32.41,31.34-56.29,48.92-75.48,63-13.41,9.88-24.18,17.85-32.89,27.12a112,112,0,0,0-51.89-76.51c-35.34-49.37-94.27-80.76-155.51-81.92-41.16,0-85.54-4.33-125.34,8a199.72,199.72,0,0,0-105.34,78.4,111.81,111.81,0,0,0-28.41,29.61c-2,3.05-3.77,6.17-5.44,9.34-4.29-63.95,3-123.55,43.74-133.78,80-20.09,112.3-61.52,143.52-101.59,35.09-45,68.24-87.58,174-91.49,135.07-5,226.19,31.55,256.6,102.92C869.34,346.84,844.16,416,805.92,453Z"/></svg>